<?xml version="1.0" encoding="UTF-8" standalone="no"?>
<svg width="272px" height="54px" viewBox="0 0 272 54" version="1.1" xmlns="http://www.w3.org/2000/svg" xmlns:xlink="http://www.w3.org/1999/xlink" xmlns:sketch="http://www.bohemiancoding.com/sketch/ns">
    <!-- Generator: Sketch 3.3.2 (12043) - http://www.bohemiancoding.com/sketch -->
    <title>Imported Layers</title>
    <desc>Created with Sketch.</desc>
    <defs></defs>
    <g id="Page-1" stroke="none" stroke-width="1" fill="none" fill-rule="evenodd" sketch:type="MSPage">
        <g id="Artboard-1" sketch:type="MSArtboardGroup" transform="translate(-56.000000, -109.000000)" fill="#FFFFFF">
            <g id="Imported-Layers" sketch:type="MSLayerGroup" transform="translate(56.000000, 109.000000)">
                <path d="M75.958,0.478 L75.958,9.982 L56.791,9.982 L56.791,23.734 L87.263,23.734 L87.263,32.519 L56.791,32.519 L56.791,42.383 L98.567,42.383 L98.567,51.887 L45.487,51.887 L45.487,0.478 L75.958,0.478" id="Fill-1" sketch:type="MSShapeGroup"></path>
                <path d="M114.983,0.478 C117.287,0.478 119.362,0.852 121.211,1.595 C123.058,2.34 124.642,3.359 125.963,4.654 C127.283,5.951 128.29,7.451 128.987,9.154 C129.682,10.859 130.031,12.695 130.031,14.662 C130.031,17.686 129.394,20.304 128.123,22.511 C126.851,24.719 124.775,26.398 121.895,27.551 L121.895,27.695 C123.287,28.08 124.439,28.666 125.351,29.459 C126.262,30.25 127.007,31.186 127.583,32.267 C128.159,33.347 128.579,34.535 128.843,35.83 C129.106,37.127 129.286,38.423 129.383,39.719 C129.43,40.535 129.478,41.495 129.527,42.599 C129.574,43.703 129.659,44.83 129.779,45.982 C129.898,47.135 130.09,48.227 130.355,49.259 C130.618,50.291 131.014,51.166 131.543,51.887 L120.239,51.887 C119.615,50.256 119.231,48.311 119.087,46.055 C118.943,43.799 118.727,41.639 118.439,39.574 C118.054,36.887 117.239,34.92 115.991,33.671 C114.742,32.423 112.703,31.799 109.871,31.799 L98.567,31.799 L98.567,23.734 L87.263,23.734 L87.263,0.478 L114.983,0.478 L114.983,0.478 Z M110.951,23.734 C113.543,23.734 115.487,23.158 116.783,22.007 C118.079,20.854 118.727,18.982 118.727,16.391 C118.727,13.896 118.079,12.083 116.783,10.955 C115.487,9.828 113.543,9.263 110.951,9.263 L98.567,9.263 L98.567,23.734 L110.951,23.734 L110.951,23.734 Z" id="Fill-2" sketch:type="MSShapeGroup"></path>
                <path d="M155.232,0.478 L167.256,35.83 L167.4,35.83 L178.776,0.478 L194.688,0.478 L194.688,23.734 L184.104,23.734 L184.104,15.455 L183.961,15.455 L171.36,51.887 L162.648,51.887 L150.049,15.815 L149.904,15.815 L149.904,23.734 L139.32,23.734 L139.32,0.478 L155.232,0.478" id="Fill-3" sketch:type="MSShapeGroup"></path>
                <path d="M205.957,23.734 L217.261,23.734 L217.261,51.886 L205.957,51.886 L205.957,23.734 Z" id="Fill-4" sketch:type="MSShapeGroup"></path>
                <path d="M239.762,0.478 L261.217,34.967 L261.361,34.967 L261.361,23.734 L271.945,23.734 L271.945,51.887 L260.641,51.887 L239.257,17.471 L239.113,17.471 L239.113,23.734 L228.529,23.734 L228.529,0.478 L239.762,0.478" id="Fill-5" sketch:type="MSShapeGroup"></path>
                <path d="M33.679,41.23 C33.342,43.247 32.574,45.131 31.374,46.883 C30.174,48.636 28.446,50.099 26.19,51.274 C23.934,52.45 20.886,53.039 17.047,53.039 C14.887,53.039 12.799,52.738 10.783,52.139 C8.767,51.539 6.967,50.603 5.383,49.331 C3.799,48.06 2.526,46.427 1.567,44.435 C0.606,42.443 0.126,40.031 0.126,37.198 L0.126,32.734 L10.351,32.734 L10.351,35.039 C10.351,36.287 10.446,37.44 10.639,38.495 C10.83,39.551 11.167,40.451 11.646,41.194 C12.126,41.94 12.786,42.526 13.626,42.959 C14.466,43.391 15.558,43.606 16.903,43.606 C18.39,43.606 19.542,43.344 20.359,42.815 C21.174,42.287 21.763,41.603 22.123,40.763 C22.482,39.924 22.699,39.011 22.771,38.026 C22.843,37.044 22.878,36.095 22.878,35.183 L22.878,0.478 L34.183,0.478 L34.183,35.686 C34.183,37.367 34.014,39.215 33.679,41.23" id="Fill-6" sketch:type="MSShapeGroup"></path>
            </g>
        </g>
    </g>
</svg>