<?xml version="1.0" encoding="UTF-8" standalone="no"?>
<svg width="254px" height="254px" viewBox="0 0 254 254" version="1.1" xmlns="http://www.w3.org/2000/svg" xmlns:xlink="http://www.w3.org/1999/xlink" xmlns:sketch="http://www.bohemiancoding.com/sketch/ns">
    <!-- Generator: Sketch 3.3.2 (12043) - http://www.bohemiancoding.com/sketch -->
    <title>Shape</title>
    <desc>Created with Sketch.</desc>
    <defs></defs>
    <g id="Page-1" stroke="none" stroke-width="1" fill="none" fill-rule="evenodd" sketch:type="MSPage">
        <path d="M53.0781,166.8594 L69.25,156.875 C71.875,161 75.0625,164.843733 78.8125,168.4062 C92.1249667,181.718733 108.249967,188.375 127.1875,188.375 C146.125033,188.375 162.250033,181.718733 175.5625,168.4062 C179.218767,164.75 182.406267,160.8594 185.125,156.7344 L201.2969,166.8594 C197.828167,172.203133 193.750033,177.218733 189.0625,181.9062 C172.000033,198.875 151.375033,207.3594 127.1875,207.3594 C102.999967,207.3594 82.3749667,198.875 65.3125,181.9062 C60.6249667,177.125 56.5468333,172.1094 53.0781,166.8594 L53.0781,166.8594 Z M19.8906,127.3438 C19.8906,156.968733 30.3671667,182.2109 51.3203,203.0703 C72.2734333,223.9297 97.5625,234.3594 127.1875,234.3594 C156.906233,234.3594 182.1953,223.9297 203.0547,203.0703 C223.9141,182.2109 234.3438,156.968733 234.3438,127.3438 C234.3438,97.625 223.9141,72.2656 203.0547,51.2656 C182.1953,30.2656 156.906233,19.7656 127.1875,19.7656 C97.5625,19.7656 72.2734333,30.2656 51.3203,51.2656 C30.3671667,72.2656 19.8906,97.625 19.8906,127.3438 L19.8906,127.3438 Z M0.9062,127.3438 C0.9062,92.375 13.2343333,62.5390333 37.8906,37.8359 C62.5468667,13.1327667 92.3125,0.7812 127.1875,0.7812 C162.156233,0.7812 191.921867,13.1327667 216.4844,37.8359 C241.046867,62.5390333 253.3281,92.375 253.3281,127.3438 C253.3281,162.218733 241.046867,191.937467 216.4844,216.5 C191.921867,241.062533 162.156233,253.3438 127.1875,253.3438 C92.3125,253.3438 62.5468667,241.062533 37.8906,216.5 C13.2343333,191.937467 0.9062,162.218733 0.9062,127.3438 L0.9062,127.3438 Z M67.2812,88.6719 C67.2812,83.1406333 69.1796667,78.4765667 72.9766,74.6797 C76.7734667,70.8828333 81.4375333,68.9844 86.9688,68.9844 C92.4062667,68.9844 97.0468667,70.8828333 100.8906,74.6797 C104.734333,78.4765667 106.6562,83.1406333 106.6562,88.6719 C106.6562,94.2031667 104.734333,98.8906667 100.8906,102.7344 C97.0468667,106.578133 92.4062667,108.5 86.9688,108.5 C81.4375333,108.5 76.7734667,106.5547 72.9766,102.6641 C69.1796667,98.7734333 67.2812,94.1093667 67.2812,88.6719 L67.2812,88.6719 Z M138.4375,82.7656 L179.9219,53.7969 L190.75,69.2656 L162.9062,88.8125 L190.75,108.2188 L179.9219,123.6875 L138.4375,94.7188 L138.4375,82.7656 L138.4375,82.7656 Z" id="Shape" fill="#FFFFFF" sketch:type="MSShapeGroup"></path>
    </g>
</svg>